<?xml version="1.0" encoding="UTF-8"?>
<svg width="192" height="192" viewBox="0 0 192 192" xmlns="http://www.w3.org/2000/svg">
  <defs>
    <linearGradient id="backgroundGradient" x1="0%" y1="0%" x2="100%" y2="100%">
      <stop offset="0%" style="stop-color:#E91E63;stop-opacity:1" />
      <stop offset="100%" style="stop-color:#9C27B0;stop-opacity:1" />
    </linearGradient>
    <linearGradient id="calendarGradient" x1="0%" y1="0%" x2="100%" y2="100%">
      <stop offset="0%" style="stop-color:#FFFFFF;stop-opacity:0.9" />
      <stop offset="100%" style="stop-color:#FFFFFF;stop-opacity:0.7" />
    </linearGradient>
    <linearGradient id="dropGradient" x1="0%" y1="0%" x2="100%" y2="100%">
      <stop offset="0%" style="stop-color:#FF4081;stop-opacity:1" />
      <stop offset="100%" style="stop-color:#E91E63;stop-opacity:1" />
    </linearGradient>
  </defs>
  
  <!-- Background circle -->
  <circle cx="96" cy="96" r="88" fill="url(#backgroundGradient)" stroke="#FFFFFF" stroke-width="4"/>
  
  <!-- Calendar base -->
  <rect x="48" y="60" width="96" height="72" rx="8" ry="8" fill="url(#calendarGradient)" stroke="#E91E63" stroke-width="2"/>
  
  <!-- Calendar header -->
  <rect x="48" y="60" width="96" height="24" rx="8" ry="8" fill="#E91E63"/>
  
  <!-- Calendar rings -->
  <circle cx="60" cy="72" r="2" fill="#FFFFFF"/>
  <circle cx="84" cy="72" r="2" fill="#FFFFFF"/>
  <circle cx="108" cy="72" r="2" fill="#FFFFFF"/>
  <circle cx="132" cy="72" r="2" fill="#FFFFFF"/>
  
  <!-- Calendar grid lines -->
  <line x1="60" y1="84" x2="132" y2="84" stroke="#E91E63" stroke-width="1" opacity="0.3"/>
  <line x1="60" y1="96" x2="132" y2="96" stroke="#E91E63" stroke-width="1" opacity="0.3"/>
  <line x1="60" y1="108" x2="132" y2="108" stroke="#E91E63" stroke-width="1" opacity="0.3"/>
  <line x1="60" y1="120" x2="132" y2="120" stroke="#E91E63" stroke-width="1" opacity="0.3"/>
  
  <line x1="72" y1="84" x2="72" y2="120" stroke="#E91E63" stroke-width="1" opacity="0.3"/>
  <line x1="84" y1="84" x2="84" y2="120" stroke="#E91E63" stroke-width="1" opacity="0.3"/>
  <line x1="96" y1="84" x2="96" y2="120" stroke="#E91E63" stroke-width="1" opacity="0.3"/>
  <line x1="108" y1="84" x2="108" y2="120" stroke="#E91E63" stroke-width="1" opacity="0.3"/>
  <line x1="120" y1="84" x2="120" y2="120" stroke="#E91E63" stroke-width="1" opacity="0.3"/>
  
  <!-- Period days (red dots) -->
  <circle cx="72" cy="90" r="3" fill="#F44336"/>
  <circle cx="84" cy="90" r="3" fill="#F44336"/>
  <circle cx="96" cy="90" r="3" fill="#F44336"/>
  <circle cx="108" cy="90" r="3" fill="#F44336"/>
  
  <!-- Fertile days (pink dots) -->
  <circle cx="72" cy="102" r="2" fill="#FF4081" opacity="0.7"/>
  <circle cx="84" cy="102" r="2" fill="#FF4081" opacity="0.7"/>
  <circle cx="96" cy="102" r="2" fill="#FF4081" opacity="0.7"/>
  <circle cx="108" cy="102" r="2" fill="#FF4081" opacity="0.7"/>
  
  <!-- Ovulation day (purple dot) -->
  <circle cx="96" cy="114" r="4" fill="#9C27B0"/>
  
  <!-- Water drop symbol -->
  <path d="M 96 140 Q 88 140 88 148 Q 88 156 96 164 Q 104 156 104 148 Q 104 140 96 140 Z" fill="url(#dropGradient)"/>
  
  <!-- Heart symbol -->
  <path d="M 96 150 C 90 144 84 144 84 150 C 84 156 90 162 96 168 C 102 162 108 156 108 150 C 108 144 102 144 96 150 Z" fill="#FF4081" opacity="0.8"/>
  
  <!-- Decorative elements -->
  <circle cx="40" cy="40" r="3" fill="#FF4081" opacity="0.6"/>
  <circle cx="152" cy="40" r="3" fill="#FF4081" opacity="0.6"/>
  <circle cx="40" cy="152" r="3" fill="#FF4081" opacity="0.6"/>
  <circle cx="152" cy="152" r="3" fill="#FF4081" opacity="0.6"/>
</svg>
